<svg xmlns="http://www.w3.org/2000/svg" width="1200" height="800" viewBox="0 0 1200 800"><rect width="1200" height="800" fill="#e8edf5"/><g font-family="Arial, sans-serif"><defs><pattern id="grid" width="40" height="40" patternUnits="userSpaceOnUse"><path d="M40 0H0V40" fill="none" stroke="#d3dce9" stroke-width="1"/></pattern></defs><rect width="1200" height="800" fill="url(#grid)"/><rect x="220" y="55" width="760" height="700" rx="4" fill="#c9d2df"/><rect x="206" y="42" width="760" height="700" rx="4" fill="#fff"/>
  <rect x="246" y="90" width="8" height="42" fill="#174ea6"/><text x="274" y="108" font-size="18" fill="#174ea6" font-weight="700">DEMO COMPANY</text><text x="274" y="135" font-size="30" fill="#171c26" font-weight="700">Monthly sales summary</text>
  <text x="246" y="183" font-size="13" fill="#485262" font-weight="700">REPORT PREVIEW / RDLC</text><text x="660" y="183" font-size="13" fill="#485262" font-weight="400">PERIOD: JAN 2026</text>
  <path d="M246 208H926" stroke="#d5dbe4"/><text x="246" y="250" font-size="20" fill="#171c26" font-weight="700">01   Sales by category</text>
  <rect x="246" y="275" width="680" height="42" fill="#edf2fa"/><text x="262" y="302" font-size="12" fill="#485262" font-weight="700">CATEGORY</text><text x="570" y="302" font-size="12" fill="#485262" font-weight="700">ORDERS</text><text x="734" y="302" font-size="12" fill="#485262" font-weight="700">TOTAL (BDT)</text>
  <text x="262" y="352" font-size="18" fill="#171c26" font-weight="400">Office supplies</text><text x="586" y="352" font-size="18" fill="#171c26" font-weight="400">12</text><text x="753" y="352" font-size="18" fill="#171c26" font-weight="400">24,000</text><path d="M246 372H926" stroke="#e3e7ed"/><text x="262" y="406" font-size="18" fill="#171c26" font-weight="400">Equipment</text><text x="586" y="406" font-size="18" fill="#171c26" font-weight="400">8</text><text x="753" y="406" font-size="18" fill="#171c26" font-weight="400">48,000</text><path d="M246 426H926" stroke="#e3e7ed"/><text x="262" y="460" font-size="18" fill="#171c26" font-weight="400">Services</text><text x="586" y="460" font-size="18" fill="#171c26" font-weight="400">6</text><text x="753" y="460" font-size="18" fill="#171c26" font-weight="400">18,000</text><path d="M246 480H926" stroke="#e3e7ed"/>
  <rect x="246" y="496" width="680" height="52" rx="2" fill="#174ea6"/><text x="262" y="530" font-size="14" fill="#fff" font-weight="700">TOTAL</text><text x="586" y="530" font-size="18" fill="#fff" font-weight="700">26</text><text x="753" y="530" font-size="18" fill="#fff" font-weight="700">90,000</text>
  <text x="246" y="594" font-size="15" fill="#485262" font-weight="400">All figures are fictional.</text><text x="246" y="620" font-size="15" fill="#485262" font-weight="400">Illustrative layout. No client or production data.</text>
  <path d="M246 674H926" stroke="#d5dbe4"/><text x="246" y="702" font-size="12" fill="#485262" font-weight="700">SANITIZED REPORT STUDY</text><text x="841" y="702" font-size="12" fill="#485262" font-weight="400">01 / 01</text></g></svg>